<?xml version="1.0" encoding="UTF-8" standalone="no" ?>
<!DOCTYPE svg PUBLIC "-//W3C//DTD SVG 1.1//EN" "http://www.w3.org/Graphics/SVG/1.1/DTD/svg11.dtd">
<svg xmlns="http://www.w3.org/2000/svg" xmlns:xlink="http://www.w3.org/1999/xlink" version="1.1" width="640" height="480" viewBox="0 0 640 480" xml:space="preserve">
<desc>Created with Fabric.js 3.6.6</desc>
<defs>
</defs>
<g transform="matrix(0.61 0 0 0.61 329.39 235.55)"  >
<path style="stroke: none; stroke-width: 1; stroke-dasharray: none; stroke-linecap: butt; stroke-dashoffset: 0; stroke-linejoin: miter; stroke-miterlimit: 4; fill: rgb(0,0,0); fill-rule: nonzero; opacity: 1;"  transform=" translate(-224.1, -256)" d="M 86.4 5.5 L 61.8 47.6 C 58 54.1 56 61.6 56 69.2 V 72 c 0 22.1 17.9 40 40 40 s 40 -17.9 40 -40 V 69.2 c 0 -7.6 -2 -15 -5.8 -21.6 L 105.6 5.5 C 103.6 2.1 100 0 96 0 s -7.6 2.1 -9.6 5.5 z m 128 0 L 189.8 47.6 c -3.8 6.5 -5.8 14 -5.8 21.6 V 72 c 0 22.1 17.9 40 40 40 s 40 -17.9 40 -40 V 69.2 c 0 -7.6 -2 -15 -5.8 -21.6 L 233.6 5.5 C 231.6 2.1 228 0 224 0 s -7.6 2.1 -9.6 5.5 z M 317.8 47.6 c -3.8 6.5 -5.8 14 -5.8 21.6 V 72 c 0 22.1 17.9 40 40 40 s 40 -17.9 40 -40 V 69.2 c 0 -7.6 -2 -15 -5.8 -21.6 L 361.6 5.5 C 359.6 2.1 356 0 352 0 s -7.6 2.1 -9.6 5.5 L 317.8 47.6 z M 128 176 c 0 -17.7 -14.3 -32 -32 -32 s -32 14.3 -32 32 v 48 c -35.3 0 -64 28.7 -64 64 v 71 c 8.3 5.2 18.1 9 28.8 9 c 13.5 0 27.2 -6.1 38.4 -13.4 c 5.4 -3.5 9.9 -7.1 13 -9.7 c 1.5 -1.3 2.7 -2.4 3.5 -3.1 c 0.4 -0.4 0.7 -0.6 0.8 -0.8 l 0.1 -0.1 l 0 0 l 0 0 s 0 0 0 0 s 0 0 0 0 c 3.1 -3.2 7.4 -4.9 11.9 -4.8 s 8.6 2.1 11.6 5.4 l 0 0 l 0 0 l 0.1 0.1 c 0.1 0.1 0.4 0.4 0.7 0.7 c 0.7 0.7 1.7 1.7 3.1 3 c 2.8 2.6 6.8 6.1 11.8 9.5 c 10.2 7.1 23 13.1 36.3 13.1 s 26.1 -6 36.3 -13.1 c 5 -3.5 9 -6.9 11.8 -9.5 c 1.4 -1.3 2.4 -2.3 3.1 -3 c 0.3 -0.3 0.6 -0.6 0.7 -0.7 l 0.1 -0.1 c 3 -3.5 7.4 -5.4 12 -5.4 s 9 2 12 5.4 l 0.1 0.1 c 0.1 0.1 0.4 0.4 0.7 0.7 c 0.7 0.7 1.7 1.7 3.1 3 c 2.8 2.6 6.8 6.1 11.8 9.5 c 10.2 7.1 23 13.1 36.3 13.1 s 26.1 -6 36.3 -13.1 c 5 -3.5 9 -6.9 11.8 -9.5 c 1.4 -1.3 2.4 -2.3 3.1 -3 c 0.3 -0.3 0.6 -0.6 0.7 -0.7 l 0.1 -0.1 c 2.9 -3.4 7.1 -5.3 11.6 -5.4 s 8.7 1.6 11.9 4.8 l 0 0 l 0 0 l 0 0 l 0.1 0.1 c 0.2 0.2 0.4 0.4 0.8 0.8 c 0.8 0.7 1.9 1.8 3.5 3.1 c 3.1 2.6 7.5 6.2 13 9.7 c 11.2 7.3 24.9 13.4 38.4 13.4 c 10.7 0 20.5 -3.9 28.8 -9 V 288 c 0 -35.3 -28.7 -64 -64 -64 V 176 c 0 -17.7 -14.3 -32 -32 -32 s -32 14.3 -32 32 v 48 H 256 V 176 c 0 -17.7 -14.3 -32 -32 -32 s -32 14.3 -32 32 v 48 H 128 V 176 z M 448 394.6 c -8.5 3.3 -18.2 5.4 -28.8 5.4 c -22.5 0 -42.4 -9.9 -55.8 -18.6 c -4.1 -2.7 -7.8 -5.4 -10.9 -7.8 c -2.8 2.4 -6.1 5 -9.8 7.5 C 329.8 390 310.6 400 288 400 s -41.8 -10 -54.6 -18.9 c -3.5 -2.4 -6.7 -4.9 -9.4 -7.2 c -2.7 2.3 -5.9 4.7 -9.4 7.2 C 201.8 390 182.6 400 160 400 s -41.8 -10 -54.6 -18.9 c -3.7 -2.6 -7 -5.2 -9.8 -7.5 c -3.1 2.4 -6.8 5.1 -10.9 7.8 C 71.2 390.1 51.3 400 28.8 400 c -10.6 0 -20.3 -2.2 -28.8 -5.4 V 480 c 0 17.7 14.3 32 32 32 H 416 c 17.7 0 32 -14.3 32 -32 V 394.6 z" stroke-linecap="round" />
</g>
</svg>